# xmcd
#
# Track frame offsets: 
#        150
#        15010
#        32580
#        48289
#        68370
#        88635
#        106042
#        126770
#        144287
#        163490
#        178855
#
# Disc length: 2647 seconds
#
# Revision: 0
# Processed by: cddbd v1.5.1PL0 Copyright (c) Steve Scherf et al.
# Submitted via: ExactAudioCopy v0.95a5
#
DISCID=7e0a550b
DTITLE=Impalas - The Impalas
DYEAR=1997
DGENRE=Blues
TTITLE0=Little Things
TTITLE1=Restless
TTITLE2=Let Me Love You
TTITLE3=I Was I Was
TTITLE4=Ain't No Sunshine
TTITLE5=Hardworkin' Man
TTITLE6=Don't Come Knockin
TTITLE7=This Kinda That Kinda Love
TTITLE8=Put Me In Your Pocket
TTITLE9=You Better Get A Move On
TTITLE10=Miss Right Now
EXTD=
EXTT0=
EXTT1=
EXTT2=
EXTT3=
EXTT4=
EXTT5=
EXTT6=
EXTT7=
EXTT8=
EXTT9=
EXTT10=
PLAYORDER=
